<?xml version="1.0" encoding="utf-8"?>
<!-- Generator: Adobe Illustrator 22.0.1, SVG Export Plug-In . SVG Version: 6.00 Build 0)  -->
<svg version="1.1" id="Layer_1" xmlns="http://www.w3.org/2000/svg" xmlns:xlink="http://www.w3.org/1999/xlink" x="0px" y="0px"
	 viewBox="0 0 505.8 130.2" style="enable-background:new 0 0 505.8 130.2;" xml:space="preserve">
<style type="text/css">
	.st0{fill:#212121;}
</style>
<title>OneStop_logtag_navy</title>
<path class="st0" d="M41.2,5.6C71,5.6,84,29.8,84,51.6c0,24.3-22.1,40.8-40.3,40.8C18.7,92.4,0,75.2,0,48.1
	C0,22.3,20.2,5.6,41.2,5.6z M45,89.3c14.2,0,31.3-11.7,31.3-36.5c0-24.1-15.6-44.2-35.1-44.2C20.5,8.7,8,25.1,8,47
	C8,70,24.5,89.3,45,89.3L45,89.3z"/>
<path class="st0" d="M214.8,84.2c0.5-0.4,0.9-0.9,1.4-1.3c0.1,0.3,0.3,0.6,0.4,0.9c0.1,0.3,0.1,0.7,0.1,1c0,1.2-0.4,2.3-1.1,3.3
	c-1.2,2-2.1,3-4.7,3c-10.7,0-24-0.8-27.4-0.8c-1.4,0-5.4,0.3-7.3,0.5l-0.1-0.7c1.2-0.9,2.2-2,3-3.4c0.5-1.3,0.6-3.2,0.6-7.5v-61
	c0-5.3-0.1-7.1-3.7-10l0.1-0.7c1.9,0.2,5.5,0.5,7.4,0.5c2.8,0,17.3-0.7,20-0.7c2.3,0,2.8,1.1,3.9,2.7c0.9,1.4,1.3,4,1.5,5.7
	c0,0-1.4-1.3-2.4-2c-0.9-0.7-2-1.3-3.1-1.7c-3.2-0.4-6.3-0.6-9.5-0.6c-2.9,0-5.6,0-6.5,0v34h12.9c3,0.2,5.9-1,7.9-3.2
	c0.3-0.3,1.2-2.1,1.2-2.1s-0.4,5-0.4,7c0,2.2,0.5,6.4,0.5,6.4s-1-1-1.3-1.3c-2.2-1.8-5-2.8-7.8-2.8h-13V87h11.4
	c4.3,0,10.7,0.3,14.6-1.8C213.8,84.9,214.3,84.6,214.8,84.2L214.8,84.2z"/>
<path class="st0" d="M302.4,78.3c0-26.4-44.7-35.3-44.7-58.1c-0.2-9.8,7.6-17.8,17.4-18c0.1,0,0.3,0,0.4,0c7,0,15.1,3.3,19.1,9.5
	c1.2,2.4,3,7.3,3,7.3s0.1-4.6,0.1-7.3s0.5-6.2,0.5-6.2c-1.1-0.3-2.2-0.7-3.3-1.1C288.3,1.5,283.6,0,276.3,0
	c-15.1,0-24.6,12.2-24.6,26.1c0,26.9,44.2,29.4,44.2,58.5c0,11.9-12.3,19.2-20.6,19.2c-6.8,0-12.3-0.7-18.3-5.5
	c-3.6-3.1-6.2-7.2-7.4-11.7c0,0,2.7,15.9,2.8,17.2c0.6-0.5,1.6-0.3,4,0c5.4,0.9,11.1,2.8,18.6,2.8
	C290.6,106.6,302.4,92.6,302.4,78.3L302.4,78.3z"/>
<path class="st0" d="M494.9,87.4h1.3v-2.9h0.8c1,0,1.3,0.3,2.3,1.8l0.7,1.1h1.5l-0.9-1.3c-0.7-0.9-1.1-1.5-1.8-1.7l0,0
	c1.1,0.1,2.1-0.8,2.2-1.9c0,0,0,0,0-0.1c0-0.7-0.7-1.8-2.6-1.8H495L494.9,87.4L494.9,87.4z M496.2,83.5v-2h2c0.8,0,1.4,0.4,1.4,1
	s-0.7,1-1.6,1H496.2z M504.2,83.9c0,2.9-2.7,5.3-6.1,5.3s-6-2.4-6-5.3s2.7-5.3,6-5.3S504.2,81,504.2,83.9z M505.4,83.9
	c0-3.5-3.2-6.3-7.3-6.3s-7.2,2.8-7.2,6.3s3.2,6.3,7.2,6.3S505.4,87.4,505.4,83.9z"/>
<path class="st0" d="M100.2,80.9c0,3.3,1.2,6.6,4.1,8.4c0.1,0.1,0.4,0.2,0.8,0.4l-0.1,0.7c-2.4-0.2-6-0.5-7.2-0.5h-0.3
	c-1.2,0-4.9,0.3-7.2,0.5L90,89.7c0.4-0.2,0.7-0.3,0.8-0.4c2.8-1.8,4.1-5.1,4.1-8.4V18.2c0-6.7-1.6-7.4-6.8-10l0.1-0.7
	c8,0.6,13.7,0.6,17.2,0.2c5.2-0.6-0.3,0.8-0.4,1.2c-0.1,0.5-0.2,0.9-0.2,1.4c0.1,1.8,0.7,3.5,1.8,5c0,0,27.9,33.6,40.8,48.6
	c5.6,6.4,8.8,9.8,10,11.1V18.2c0-3.8-0.4-5.6-1.1-6.8c-1-1.2-2.1-2.2-3.4-3l0.1-0.7c1.9,0.1,5.4,0.2,7.1,0.2s5-0.2,6.8-0.3l0.1,0.7
	c-1.3,1-2.4,2.3-3.2,3.7c-0.8,1.5-1.1,3.7-1.1,7.6v74.3l-62.5-74L100.2,80.9L100.2,80.9z"/>
<path class="st0" d="M341.5,78.5v2.4c0,3.3,1.2,6.6,4,8.4c0.3,0.2,0.5,0.3,0.8,0.4l-0.1,0.7c-2.4-0.2-6-0.5-7.2-0.5h-2.6
	c-1.2,0-4.9,0.3-7.2,0.5l-0.1-0.7c0.3-0.1,0.6-0.3,0.8-0.4c2.8-1.8,4-5.1,4-8.4l0.1-2.5V12h-21.3c-5.1,0-7.5,0.9-10.3,5.3
	c0,0,0-2.2,0.1-3.3c0-1,0.3-2,0.6-3c0.8-1.8,2.3-3.6,4.4-3.6c4.2,0.1,19.5,0.5,30.2,0.5c10.1,0,25.5-0.3,29.6-0.5
	c1.7-0.1,3.5,1.4,4.5,3.2c0.5,1,0.8,2.2,0.9,3.3s0.1,3.4,0.1,3.4l-0.7-1.2c-1.6-2.8-4.7-4.1-9.9-4.1h-20.9
	C341.5,12.1,341.5,78.5,341.5,78.5L341.5,78.5z"/>
<path class="st0" d="M472.5,78.4v2.5c0,3.3,1.2,6.6,4,8.4c0.1,0.1,0.5,0.2,0.8,0.4l-0.1,0.7c-2.4-0.2-6-0.5-7.2-0.5h-2.9
	c-1.2,0-4.8,0.3-7.2,0.5l-0.1-0.7c0.4-0.2,0.7-0.3,0.8-0.4c2.8-1.8,4-5.1,4-8.4l0.1-2.5V16.3c0-2.9-0.8-6.5-3.6-7.9
	c-0.2-0.1-0.4-0.2-0.6-0.2l0.1-0.7c0,0,5.2,0.5,8,0.5c2,0,5.5-0.6,14.2-0.6c12.8,0,22.9,9.2,22.9,20.4c0,13.1-7.1,22.2-20.3,22.2
	c-3-0.1-6.1-0.6-9-1.4l0.2-1.3c2.3,0.4,4.7,0.7,7,0.8c7,0,14.9-2.8,14.9-18c0-11.3-7-19.9-18.5-19.9c-2.6,0-5.2,0.3-7.7,1
	L472.5,78.4L472.5,78.4z"/>
<path class="st0" d="M411.1,5.6c29.8,0,42.8,24.2,42.8,46c0,24.3-22.1,40.8-40.3,40.8c-25,0-43.8-17.3-43.8-44.3
	C369.9,22.3,390.1,5.6,411.1,5.6L411.1,5.6z M414.9,89.4c14.2,0,31.3-11.7,31.3-36.5c0-24.1-15.6-44.2-35.1-44.2
	c-20.7,0-33.2,16.4-33.2,38.4C377.8,70,394.3,89.4,414.9,89.4L414.9,89.4z"/>
<path class="st0" d="M8.3,118.4H4.9L0.2,130h3.1l0.9-2.3h5.2l1,2.3h3.1L8.3,118.4L8.3,118.4z M8.5,125.7H4.9l1.7-4.5
	C6.6,121.2,8.5,125.7,8.5,125.7z"/>
<polygon class="st0" points="33.2,122.7 29.5,118.4 27,118.4 27,130 29.8,130 29.8,122.8 33,126.4 33.4,126.4 36.5,122.8 36.5,130 
	39.4,130 39.4,118.4 36.9,118.4 "/>
<polygon class="st0" points="62.8,127.9 57.1,127.9 57.1,125.1 62.4,125.1 62.4,123 57.1,123 57.1,120.6 62.6,120.6 62.6,118.4 
	54.2,118.4 54.2,130 62.8,130 "/>
<path class="st0" d="M77.1,118.4V130H80v-4.7h0.8c1.6,0,2,2.2,3.3,4.7h3.2c-1.6-3.4-2-4.8-3.2-5.4c1.2-0.4,2-1.6,2-2.8
	c-0.1-1.9-1.7-3.4-3.6-3.3c-0.1,0-0.1,0-0.2,0L77.1,118.4z M80,120.6h1.5c1.1,0,1.6,0.4,1.6,1.3s-0.8,1.3-1.6,1.3H80V120.6L80,120.6
	z"/>
<polygon class="st0" points="103.8,118.4 100.9,118.4 100.9,130 103.8,130 "/>
<path class="st0" d="M129.5,126.5c-1.3,0.8-2.7,1.2-4.2,1.3c-2.4,0-4.1-1.5-4.1-3.6s1.7-3.5,4.2-3.5c1.4,0,2.8,0.5,4,1.2v-2.6
	c-1.3-0.7-2.7-1-4.2-1c-4.4,0-7,2.9-7,6s2.2,5.9,6.8,5.9c1.6,0,3.2-0.4,4.6-1.2L129.5,126.5L129.5,126.5z"/>
<path class="st0" d="M150.8,118.4h-3.4l-4.7,11.6h3.1l0.9-2.3h5.2l1,2.3h3.1L150.8,118.4L150.8,118.4z M151,125.7h-3.6l1.7-4.5
	L151,125.7L151,125.7z"/>
<path class="st0" d="M169,123.6c1.7-0.2,3-1.7,3-3.4c0.1-1-0.6-1.8-1.5-1.9c-0.1,0-0.1,0-0.2,0c-0.7,0-1.4,0.5-1.4,1.3
	c0,0,0,0,0,0.1c0,0.6,0.3,1.1,0.9,1.2c0.1,0.8-0.2,1.6-0.8,2.2V123.6L169,123.6z"/>
<path class="st0" d="M194,119.2c-1.2-0.6-2.6-0.9-3.9-0.9c-2.7,0-4.4,1.3-4.4,3.3c0,4.2,5.9,3.5,5.9,5.4c0,0.7-0.6,1.1-1.7,1.1
	c-1.5-0.1-2.9-0.6-4-1.5v2.5c1.3,0.8,2.7,1.1,4.2,1.1c2.6,0,4.4-1.3,4.4-3.5c0-4-5.9-3.6-5.9-5.3c0-0.6,0.7-1,1.7-1
	c1.3,0.1,2.5,0.4,3.7,1V119.2L194,119.2z"/>
<path class="st0" d="M225.6,118.4V130h5.6c3.4,0,4.1-2.1,4.1-3.4c0-1.5-1-2.7-2.5-3c0.9-0.4,1.5-1.3,1.6-2.3c0-1.3-1.1-2.9-3.8-2.9
	L225.6,118.4z M228.5,120.6h1.5c1,0,1.5,0.6,1.5,1.2S231,123,230,123h-1.5V120.6L228.5,120.6z M228.5,125.2h2c1,0,1.8,0.5,1.8,1.3
	c0,1-0.6,1.4-2.2,1.4h-1.6V125.2L228.5,125.2z"/>
<polygon class="st0" points="258.2,127.9 252.5,127.9 252.5,125.1 257.8,125.1 257.8,123 252.5,123 252.5,120.6 258.1,120.6 
	258.1,118.4 249.6,118.4 249.6,130 258.2,130 "/>
<path class="st0" d="M280.4,119.2c-1.2-0.6-2.6-0.9-3.9-0.9c-2.7,0-4.4,1.3-4.4,3.3c0,4.2,5.9,3.5,5.9,5.4c0,0.7-0.6,1.1-1.7,1.1
	c-1.5-0.1-2.9-0.6-4-1.5v2.5c1.3,0.8,2.7,1.1,4.2,1.1c2.6,0,4.5-1.3,4.5-3.5c0-4-5.9-3.6-5.9-5.3c0-0.6,0.7-1,1.7-1
	c1.3,0.1,2.5,0.4,3.7,1L280.4,119.2L280.4,119.2z"/>
<polygon class="st0" points="305.5,118.4 294.2,118.4 294.2,120.6 298.4,120.6 298.4,130 301.3,130 301.3,120.6 305.5,120.6 "/>
<path class="st0" d="M344.1,119.2c-1.2-0.6-2.6-0.9-3.9-0.9c-2.7,0-4.4,1.3-4.4,3.3c0,4.2,5.9,3.5,5.9,5.4c0,0.7-0.6,1.1-1.7,1.1
	c-1.5-0.1-2.9-0.6-4-1.5v2.5c1.3,0.8,2.7,1.1,4.2,1.1c2.6,0,4.5-1.3,4.5-3.5c0-4-5.9-3.6-5.9-5.3c0-0.6,0.7-1,1.7-1
	c1.3,0.1,2.5,0.4,3.7,1L344.1,119.2L344.1,119.2z"/>
<path class="st0" d="M367.4,118.4v6.5c0.1,1.5-1,2.8-2.5,2.9c-0.2,0-0.3,0-0.5,0c-1.4,0.1-2.7-0.9-2.9-2.4c0-0.1,0-0.2,0-0.3v-6.7
	h-2.9v6.6c0,3.6,2.4,5.1,5.8,5.1c3.2,0,5.8-1.3,5.8-5.2v-6.6L367.4,118.4z"/>
<path class="st0" d="M385.1,118.4V130h2.9v-4.7h2.3c1.9,0.2,3.6-1.2,3.8-3.1c0.2-1.9-1.2-3.6-3.1-3.8c-0.2,0-0.5,0-0.7,0H385.1z
	 M388,120.6h1c1.6,0,2.1,0.4,2.1,1.3s-0.5,1.3-1.8,1.3H388V120.6L388,120.6z"/>
<path class="st0" d="M408.4,118.4V130h2.9v-4.7h2.3c1.9,0.2,3.6-1.2,3.8-3.1c0.2-1.9-1.2-3.6-3.1-3.8c-0.2,0-0.5,0-0.7,0H408.4z
	 M411.3,120.6h1c1.6,0,2.1,0.4,2.1,1.3s-0.5,1.3-1.8,1.3h-1.3L411.3,120.6L411.3,120.6z"/>
<polygon class="st0" points="440.5,127.9 434.5,127.9 434.5,118.4 431.6,118.4 431.6,130 440.5,130 "/>
<polygon class="st0" points="457.3,118.4 454.4,118.4 454.4,130 457.3,130 "/>
<polygon class="st0" points="480.7,127.9 475,127.9 475,125.1 480.3,125.1 480.3,123 475,123 475,120.6 480.6,120.6 480.6,118.4 
	472.1,118.4 472.1,130 480.7,130 "/>
<path class="st0" d="M495.1,118.4V130h2.9v-4.7h0.8c1.6,0,2,2.2,3.3,4.7h3.2c-1.6-3.4-2-4.8-3.2-5.4c1.2-0.4,2-1.6,2-2.8
	c-0.1-1.9-1.7-3.4-3.6-3.3c-0.1,0-0.1,0-0.2,0L495.1,118.4z M498,120.6h1.5c1.1,0,1.7,0.4,1.7,1.3s-0.8,1.3-1.6,1.3H498V120.6
	L498,120.6z"/>
</svg>
